<svg xmlns="http://www.w3.org/2000/svg" viewBox="-12 0 332 100" role="img" aria-labelledby="title">
  <title id="title">GRIMME</title>
  <!-- Decorative top rule with the GRIMME "dot" motif -->
  <g fill="#ed0712">
    <path d="M16 6h134l-3 16H12z"/>
    <circle cx="165" cy="14" r="13"/>
    <path d="M186 6h120l-3 16H182z"/>
  </g>
  <!-- Wordmark drawn as vector strokes (no font dependency); skewX gives the italic slant -->
  <g transform="skewX(-10)" fill="none" stroke="#ed0712" stroke-width="12" stroke-linejoin="miter" stroke-linecap="square">
    <path d="M44 36 L18 36 L18 80 L44 80 L44 58 L30 58"/>
    <path d="M60 80 L60 36 L90 36 L90 54 L60 54 M66 54 L94 80"/>
    <path d="M116 36 L116 80"/>
    <path d="M132 80 L132 36 L158 72 L184 36 L184 80"/>
    <path d="M200 80 L200 36 L226 72 L252 36 L252 80"/>
    <path d="M300 36 L268 36 L268 80 L300 80 M268 58 L296 58"/>
  </g>
</svg>
